<?xml version="1.0" encoding="utf-8"?>
<!-- Generator: Adobe Illustrator 23.1.1, SVG Export Plug-In . SVG Version: 6.00 Build 0)  -->
<svg version="1.1" id="Layer_1" xmlns="http://www.w3.org/2000/svg" xmlns:xlink="http://www.w3.org/1999/xlink" x="0px" y="0px"
	 viewBox="0 0 16 16" style="enable-background:new 0 0 16 16;" xml:space="preserve">
<style type="text/css">
	.st0{fill:#FFFFFF;}
</style>
<path class="st0" d="M15,5v6c0,2.2-1.8,4-4,4H5c-2.2,0-4-1.8-4-4V5c0-2.2,1.8-4,4-4h6C13.2,1,15,2.8,15,5z M13,9V7c0-0.6-0.4-1-1-1
	s-1,0.4-1,1v2c0,0.6,0.4,1,1,1S13,9.6,13,9z M10.8,12.8c0.4-0.4,0.4-1,0-1.4c-0.4-0.4-1-0.4-1.4,0c-0.8,0.8-2,0.8-2.8,0
	c-0.4-0.4-1-0.4-1.4,0c-0.4,0.4-0.4,1,0,1.4C6.7,14.4,9.3,14.4,10.8,12.8z M5,9V7c0-0.6-0.4-1-1-1S3,6.4,3,7v2c0,0.6,0.5,1,1,1
	S5,9.6,5,9z"/>
<path d="M13,7v2c0,0.6-0.4,1-1,1s-1-0.4-1-1V7c0-0.6,0.4-1,1-1S13,6.4,13,7z"/>
<path d="M10.8,11.4c0.4,0.4,0.4,1,0,1.4c-1.6,1.6-4.1,1.6-5.7,0c-0.4-0.4-0.4-1,0-1.4c0.4-0.4,1-0.4,1.4,0c0.8,0.8,2,0.8,2.8,0
	C9.8,11,10.4,11,10.8,11.4z"/>
<path d="M5,7v2c0,0.6-0.4,1-1,1S3,9.6,3,9V7c0-0.6,0.5-1,1-1S5,6.4,5,7z"/>
</svg>
