<?xml version="1.0" encoding="utf-8"?>
<!-- Generator: Adobe Illustrator 23.1.1, SVG Export Plug-In . SVG Version: 6.00 Build 0)  -->
<svg version="1.1" id="Layer_1" xmlns="http://www.w3.org/2000/svg" xmlns:xlink="http://www.w3.org/1999/xlink" x="0px" y="0px"
	 viewBox="0 0 16 16" style="enable-background:new 0 0 16 16;" xml:space="preserve">
<style type="text/css">
	.st0{fill:#FFFFFF;}
</style>
<path class="st0" d="M8,4.8C6.2,4.8,4.8,6.2,4.8,8s1.5,3.2,3.2,3.2s3.2-1.5,3.2-3.2S9.8,4.8,8,4.8 M5.8,8c0-1.2,1-2.2,2.2-2.2
	s2.2,1,2.2,2.2s-1,2.2-2.2,2.2S5.8,9.2,5.8,8"/>
<path class="st0" d="M9.8,1.3c-0.5-1.8-3.1-1.8-3.6,0L6.1,1.7C6,2.1,5.5,2.4,5,2.3c-0.1,0-0.1,0-0.2-0.1L4.6,2
	C2.9,1.1,1.1,2.9,2,4.6l0.2,0.3c0.2,0.4,0.1,1-0.3,1.2c-0.1,0-0.1,0.1-0.2,0.1L1.3,6.2c-1.8,0.5-1.8,3.1,0,3.6l0.3,0.1
	C2.1,10,2.4,10.5,2.3,11c0,0.1,0,0.1-0.1,0.2L2,11.4c-0.9,1.6,0.9,3.4,2.5,2.5l0.3-0.2c0.4-0.2,1-0.1,1.2,0.3c0,0.1,0.1,0.1,0.1,0.2
	l0.1,0.3c0.5,1.8,3.1,1.8,3.6,0l0.1-0.3c0.1-0.5,0.6-0.7,1.1-0.6c0.1,0,0.1,0,0.2,0.1l0.3,0.2c1.6,0.9,3.4-0.9,2.5-2.5l-0.2-0.3
	c-0.2-0.4-0.1-1,0.3-1.2c0.1,0,0.1-0.1,0.2-0.1l0.3-0.1c1.8-0.5,1.8-3.1,0-3.6l-0.3-0.1C13.9,6,13.6,5.5,13.7,5c0-0.1,0-0.1,0.1-0.2
	L14,4.6c0.9-1.6-0.9-3.4-2.5-2.5l-0.3,0.2c-0.4,0.2-1,0.1-1.2-0.3c0-0.1-0.1-0.1-0.1-0.2L9.8,1.3z M7.2,1.6c0.2-0.8,1.4-0.8,1.7,0
	l0.1,0.3c0.3,1,1.3,1.6,2.3,1.3c0.1,0,0.3-0.1,0.4-0.2l0.3-0.2c0.8-0.4,1.6,0.4,1.2,1.2l-0.2,0.3c-0.5,0.9-0.2,2,0.7,2.5
	C13.8,7,13.9,7,14.1,7.1l0.3,0.1c0.8,0.2,0.8,1.4,0,1.7l-0.3,0.1c-1,0.3-1.6,1.3-1.3,2.3c0,0.1,0.1,0.3,0.2,0.4l0.2,0.3
	c0.4,0.8-0.4,1.6-1.2,1.2l-0.3-0.2c-0.9-0.5-2-0.2-2.5,0.7C9,13.8,9,13.9,8.9,14.1l-0.1,0.3c-0.2,0.8-1.4,0.8-1.7,0l-0.1-0.3
	c-0.3-1-1.3-1.6-2.3-1.3c-0.1,0-0.2,0.1-0.4,0.2l-0.3,0.2c-0.8,0.4-1.6-0.4-1.2-1.2l0.2-0.3c0.5-0.9,0.2-2-0.7-2.5
	C2.2,9,2.1,9,1.9,8.9L1.6,8.8c-0.8-0.2-0.8-1.4,0-1.7l0.3-0.1c1-0.3,1.6-1.3,1.3-2.3c0-0.1-0.1-0.2-0.2-0.4L2.9,4.1
	C2.5,3.3,3.3,2.5,4.1,2.9l0.3,0.2c0.9,0.5,2,0.2,2.5-0.7C7,2.2,7,2.1,7.1,1.9L7.2,1.6z"/>
</svg>
