<?xml version="1.0" encoding="utf-8"?>
<!-- Generator: Adobe Illustrator 23.1.1, SVG Export Plug-In . SVG Version: 6.00 Build 0)  -->
<svg version="1.1" id="Layer_1" xmlns="http://www.w3.org/2000/svg" xmlns:xlink="http://www.w3.org/1999/xlink" x="0px" y="0px"
	 viewBox="0 0 16 16" style="enable-background:new 0 0 16 16;" xml:space="preserve">
<style type="text/css">
	.st0{fill:#FFFFFF;}
</style>
<path class="st0" d="M9.4,1C9-0.4,7-0.4,6.6,1L6.5,1.4c-0.2,0.8-1,1.2-1.8,1c-0.1,0-0.2-0.1-0.3-0.1L4.1,2.1c-1.3-0.7-2.7,0.7-2,2
	l0.2,0.3c0.4,0.8,0,1.8-0.9,2.1L1,6.6C-0.4,7-0.4,9,1,9.4l0.3,0.1c0.8,0.2,1.2,1,1,1.8c0,0.1-0.1,0.2-0.1,0.3l-0.2,0.3
	c-0.7,1.3,0.7,2.7,2,2l0.3-0.2c0.7-0.4,1.6-0.1,2,0.6c0,0.1,0.1,0.2,0.1,0.3L6.6,15C7,16.4,9,16.4,9.4,15l0.1-0.3
	c0.2-0.8,1-1.2,1.8-1c0.1,0,0.2,0.1,0.3,0.1l0.3,0.2c1.3,0.7,2.7-0.7,2-2l-0.2-0.3c-0.4-0.7-0.1-1.6,0.6-2c0.1,0,0.2-0.1,0.3-0.1
	l0.3-0.1c1.4-0.4,1.4-2.4,0-2.8l-0.3-0.1c-0.8-0.2-1.2-1-1-1.8c0-0.1,0.1-0.2,0.1-0.3l0.2-0.3c0.7-1.3-0.7-2.7-2-2l-0.3,0.2
	c-0.7,0.4-1.6,0.1-2-0.6c0-0.1-0.1-0.2-0.1-0.3L9.4,1z M8,10.9c-1.6,0-2.9-1.3-2.9-2.9S6.4,5.1,8,5.1c1.6,0,2.9,1.3,2.9,2.9
	C10.9,9.6,9.6,10.9,8,10.9L8,10.9z"/>
</svg>
