<?xml version="1.0" encoding="utf-8"?>
<!-- Generator: Adobe Illustrator 23.1.1, SVG Export Plug-In . SVG Version: 6.00 Build 0)  -->
<svg version="1.1" id="Layer_1" xmlns="http://www.w3.org/2000/svg" xmlns:xlink="http://www.w3.org/1999/xlink" x="0px" y="0px"
	 viewBox="0 0 16 16" style="enable-background:new 0 0 16 16;" xml:space="preserve">
<style type="text/css">
	.st0{fill:#FFFFFF;}
</style>
<path class="st0" d="M15.9,11.5c-0.3,0.4-1.1,0.7-1.1,0.7l-5.7,2v-1.5l4.2-1.5c0.5-0.2,0.5-0.4,0.2-0.5c-0.4-0.1-1.1-0.1-1.6,0.1
	l-2.8,1v-1.6l0.2-0.1c0,0,0.8-0.3,1.9-0.4c1.1-0.1,2.5,0,3.6,0.4C16,10.5,16.2,11.1,15.9,11.5 M9.6,8.9V5c0-0.5-0.1-0.9-0.5-1
	C8.8,3.9,8.6,4.2,8.6,4.7v9.7L6,13.5V2c1.1,0.2,2.7,0.7,3.6,1c2.2,0.8,3,1.7,3,3.8C12.5,8.9,11.2,9.7,9.6,8.9L9.6,8.9z M1.2,12.5
	c-1.3-0.4-1.5-1.1-0.9-1.5c0.5-0.4,1.4-0.7,1.4-0.7L5.5,9v1.5l-2.7,1c-0.5,0.2-0.5,0.4-0.2,0.5c0.4,0.1,1.1,0.1,1.6-0.1l1.3-0.5v1.4
	l-0.3,0C3.9,13,2.5,12.9,1.2,12.5L1.2,12.5z"/>
</svg>
