<?xml version="1.0" encoding="utf-8"?>
<!-- Generator: Adobe Illustrator 23.1.1, SVG Export Plug-In . SVG Version: 6.00 Build 0)  -->
<svg version="1.1" id="Layer_1" xmlns="http://www.w3.org/2000/svg" xmlns:xlink="http://www.w3.org/1999/xlink" x="0px" y="0px"
	 viewBox="0 0 24 24" style="enable-background:new 0 0 24 24;" xml:space="preserve">
<style type="text/css">
	.st0{fill:#FFFFFF;}
</style>
<path class="st0" d="M9.2,22l-0.4-3.2c-0.2-0.1-0.4-0.2-0.6-0.3s-0.4-0.2-0.6-0.4l-3,1.2L2,14.6l2.6-1.9c0-0.1,0-0.2,0-0.3v-0.7
	c0-0.1,0-0.2,0-0.3L2,9.4l2.8-4.8l3,1.2c0.2-0.1,0.4-0.3,0.6-0.4c0.2-0.1,0.4-0.2,0.6-0.3L9.2,2h5.5l0.4,3.2
	c0.2,0.1,0.4,0.2,0.6,0.3c0.2,0.1,0.4,0.2,0.6,0.4l3-1.2l2.8,4.8l-2.6,1.9c0,0.1,0,0.2,0,0.3v0.7c0,0.1,0,0.2,0,0.3l2.6,1.9
	l-2.8,4.8l-2.9-1.2c-0.2,0.1-0.4,0.3-0.6,0.4s-0.4,0.2-0.6,0.3L14.8,22H9.2z M11,20h2l0.3-2.6c0.5-0.1,1-0.3,1.4-0.6
	c0.4-0.3,0.8-0.6,1.2-0.9l2.5,1l1-1.7l-2.2-1.6c0.1-0.2,0.1-0.5,0.2-0.7c0-0.3,0-0.5,0-0.8s0-0.5,0-0.8c0-0.3-0.1-0.5-0.2-0.7
	l2.2-1.6l-1-1.7L16,8.2c-0.4-0.4-0.8-0.7-1.2-1c-0.4-0.3-0.9-0.5-1.4-0.6L13,4h-2l-0.4,2.6c-0.5,0.1-1,0.3-1.4,0.6S8.4,7.8,8,8.2
	l-2.5-1l-1,1.7l2.1,1.6c-0.1,0.2-0.1,0.5-0.2,0.8c0,0.2-0.1,0.5-0.1,0.8c0,0.3,0,0.5,0.1,0.8c0,0.2,0.1,0.5,0.2,0.8l-2.1,1.6l1,1.7
	L8,15.8c0.4,0.4,0.8,0.7,1.2,1c0.4,0.3,0.9,0.5,1.4,0.6L11,20z M12.1,15.5c1,0,1.8-0.3,2.5-1c0.7-0.7,1-1.5,1-2.5s-0.3-1.8-1-2.5
	c-0.7-0.7-1.5-1-2.5-1c-1,0-1.8,0.3-2.5,1c-0.7,0.7-1,1.5-1,2.5s0.3,1.8,1,2.5C10.2,15.2,11.1,15.5,12.1,15.5z"/>
</svg>
