<?xml version="1.0" encoding="utf-8"?>
<!-- Generator: Adobe Illustrator 23.1.1, SVG Export Plug-In . SVG Version: 6.00 Build 0)  -->
<svg version="1.1" id="Layer_1" xmlns="http://www.w3.org/2000/svg" xmlns:xlink="http://www.w3.org/1999/xlink" x="0px" y="0px"
	 viewBox="0 0 24 24" style="enable-background:new 0 0 24 24;" xml:space="preserve">
<style type="text/css">
	.st0{fill:#FFFFFF;}
</style>
<path class="st0" d="M9.2,22l-0.4-3.2c-0.2-0.1-0.4-0.2-0.6-0.3c-0.2-0.1-0.4-0.2-0.5-0.3l-2.9,1.2l-2.8-4.9l2.6-1.9
	c0-0.1,0-0.2,0-0.3V12c0-0.1,0-0.2,0-0.3c0-0.1,0-0.2,0-0.4L1.9,9.4l2.8-4.8l3,1.2c0.1-0.1,0.3-0.2,0.5-0.3c0.2-0.1,0.4-0.2,0.6-0.3
	L9.2,2h5.6l0.4,3.2c0.2,0.1,0.4,0.2,0.6,0.3c0.2,0.1,0.3,0.2,0.5,0.4l3-1.2l2.8,4.8l-2.7,2c0,0.1,0,0.2,0,0.3V12c0,0.1,0,0.2,0,0.3
	c0,0.1,0,0.2,0,0.3l2.6,1.9l-2.8,4.9l-3-1.3c-0.1,0.1-0.3,0.2-0.4,0.3c-0.2,0.1-0.4,0.2-0.6,0.3L14.8,22H9.2z M12,15.4
	c0.9,0,1.7-0.3,2.4-1s1-1.5,1-2.4s-0.3-1.7-1-2.4s-1.5-1-2.4-1c-0.9,0-1.7,0.3-2.4,1s-1,1.5-1,2.4s0.3,1.7,1,2.4S11,15.4,12,15.4z"
	/>
</svg>
