<?xml version="1.0" encoding="utf-8"?>
<!-- Generator: Adobe Illustrator 23.1.1, SVG Export Plug-In . SVG Version: 6.00 Build 0)  -->
<svg version="1.1" id="Layer_1" xmlns="http://www.w3.org/2000/svg" xmlns:xlink="http://www.w3.org/1999/xlink" x="0px" y="0px"
	 viewBox="0 0 16 16" style="enable-background:new 0 0 16 16;" xml:space="preserve">
<style type="text/css">
	.st0{fill:#FFFFFF;}
</style>
<path class="st0" d="M7.5,4c0-0.3-0.2-0.5-0.5-0.5c-0.1,0-0.2,0-0.3,0.1L4.3,5.5H2C1.7,5.5,1.5,5.7,1.5,6v4c0,0.3,0.2,0.5,0.5,0.5
	h2.3l2.4,1.9c0.2,0.2,0.5,0.1,0.7-0.1c0.1-0.1,0.1-0.2,0.1-0.3V4z M10.5,8c0,1.2-0.5,2.3-1.3,3.2l-0.7-0.7c0.7-0.7,1-1.5,1-2.5
	c0-0.9-0.4-1.8-1-2.5l0.7-0.7C10.1,5.7,10.5,6.8,10.5,8"/>
<path class="st0" d="M11.1,12.6C12.3,11.4,13,9.7,13,8s-0.7-3.4-1.9-4.6l-0.7,0.7c1,1,1.6,2.4,1.6,3.9s-0.6,2.9-1.6,3.9L11.1,12.6z"
	/>
</svg>
