<?xml version="1.0" encoding="utf-8"?>
<svg width="16" height="16" fill="White" class="bi bi-volume-mute-fill" viewBox="0 0 16 16" xmlns="http://www.w3.org/2000/svg">
  <defs/>
  <path d="M 7.431 3.485 C 7.604 3.568 7.714 3.743 7.714 3.935 L 7.714 11.935 C 7.714 12.32 7.297 12.56 6.964 12.367 C 6.942 12.355 6.922 12.341 6.902 12.325 L 4.539 10.435 L 2.214 10.435 C 1.938 10.435 1.714 10.211 1.714 9.935 L 1.714 5.935 C 1.714 5.659 1.938 5.435 2.214 5.435 L 4.539 5.435 L 6.902 3.545 C 7.052 3.425 7.258 3.402 7.431 3.485 M 13.854 5.646 C 14.05 5.841 14.05 6.159 13.854 6.354 L 12.207 8 L 13.854 9.646 C 14.127 9.919 14.002 10.384 13.63 10.484 C 13.457 10.53 13.272 10.48 13.146 10.354 L 11.5 8.707 L 9.854 10.354 C 9.581 10.627 9.116 10.502 9.016 10.13 C 8.97 9.957 9.02 9.772 9.146 9.646 L 10.793 8 L 9.146 6.354 C 8.873 6.081 8.998 5.616 9.37 5.516 C 9.543 5.47 9.728 5.52 9.854 5.646 L 11.5 7.293 L 13.146 5.646 C 13.341 5.45 13.659 5.45 13.854 5.646"/>
</svg>