<svg version="1.2" xmlns="http://www.w3.org/2000/svg" viewBox="0 0 16 16" width="16" height="16">
	<title>bell-fill-svg</title>
	<style>
		.s0 { fill: #c38ef1 } 
	</style>
	<path id="Layer" class="s0" d="m8 16q0.4 0 0.8-0.2 0.3-0.1 0.6-0.4 0.3-0.3 0.4-0.6 0.2-0.4 0.2-0.8h-4q0 0.4 0.2 0.8 0.1 0.3 0.4 0.6 0.3 0.3 0.6 0.4 0.4 0.2 0.8 0.2zm1-14.9c0-0.3-0.1-0.6-0.3-0.8-0.1-0.2-0.4-0.3-0.7-0.3-0.3 0-0.6 0.1-0.7 0.3-0.2 0.2-0.3 0.5-0.3 0.8q-0.8 0.2-1.6 0.6-0.7 0.5-1.3 1.1-0.5 0.7-0.8 1.5-0.3 0.8-0.3 1.7c0 1.1-0.5 6-2 7h14c-1.5-1-2-5.9-2-7 0-2.4-1.7-4.4-4-4.9z"/>
</svg>