<svg version="1.2" xmlns="http://www.w3.org/2000/svg" viewBox="0 0 960 960" width="41" height="41">
	<title>lunch_dining_24dp_8B1A10_FILL0_wght500_GRAD0_opsz24-svg</title>
	<style>
		.s0 { fill: #ffffff } 
	</style>
	<path id="Layer" class="s0" d="m160.7 851.7q-36.8 0-62.8-26-26-26-26-62.8v-83.1q0-19.2 13.1-32.4 13.2-13.1 32.4-13.1h725.2q19.2 0 32.4 13.1 13.1 13.2 13.1 32.4v83.1q0 36.8-26 62.8-26 26-62.8 26zm319.3-312.7q-36.3 0-58.5 20-22.2 20-78.4 20-56.3 0-77.4-20-21.2-20-57.5-20-27.5 0-45 12.9-17.5 12.9-46.5 21.2-17.2 5.7-31.1-6.9-13.8-12.5-13.8-31.5 0-18.9 12.7-33.1 12.7-14.1 30.4-22.8 17-8.8 36.9-18.6 19.9-9.8 56.4-9.8 56.3 0 77.5 20 21.1 20 57.4 20 36.2 0 58.4-20 22.2-20 78.5-20 56.2 0 78.5 20 22.3 20 58.6 20 36.2 0 57.4-20 21.2-20 77.4-20 34.8 0 55.7 9.3 20.9 9.3 37.9 18.1 17.7 8.7 30.2 23.3 12.6 14.7 12.6 33.6 0 19.2-13.4 31.5-13.4 12.4-30.6 6.6-27.6-8.2-44.2-21-16.6-12.8-43.9-12.8-36.3 0-59.6 20-23.3 20-79.5 20-56.3 0-78.6-20-22.3-20-58.5-20zm0-430.5q75.2 0 148.2 13.3 73.1 13.2 130.8 41.9 57.7 28.6 93.4 74.3 35.7 45.8 35.7 111.7 0 19.2-13.2 32.3-13.2 13.2-32.3 13.2h-725.3q-19.1 0-32.3-13.2-13.2-13.1-13.2-32.3 0-65.9 35.7-111.7 35.8-45.7 93.5-74.3 57.7-28.7 130.7-41.9 73.1-13.3 148.3-13.3z"/>
</svg>